<svg preserveAspectRatio="none" overflow="visible" style="display: block;" width="24" height="24" viewBox="0 0 24 24" fill="none" xmlns="http://www.w3.org/2000/svg">
<g id="ph/aperture-bold">
<path id="Vector" d="M19.1634 4.84031C17.7474 3.42437 15.9433 2.46012 13.9793 2.0695C12.0152 1.67888 9.97946 1.87943 8.12939 2.64578C6.27933 3.41214 4.69806 4.70989 3.58554 6.37492C2.47302 8.03995 1.87921 9.99749 1.87921 12C1.87921 14.0025 2.47302 15.96 3.58554 17.6251C4.69806 19.2901 6.27933 20.5879 8.12939 21.3542C9.97946 22.1206 12.0152 22.3211 13.9793 21.9305C15.9433 21.5399 17.7474 20.5756 19.1634 19.1597C20.1107 18.2234 20.8627 17.1085 21.376 15.8795C21.8892 14.6505 22.1535 13.3319 22.1535 12C22.1535 10.6681 21.8892 9.3495 21.376 8.12051C20.8627 6.89151 20.1107 5.77658 19.1634 4.84031ZM17.5697 6.43406C17.8722 6.73507 18.1497 7.0602 18.3994 7.40625L15.8437 10.4147L13.6594 4.30125C15.1422 4.61752 16.5012 5.35746 17.5716 6.43125L17.5697 6.43406ZM6.4275 6.43406C7.71192 5.14314 9.40649 4.34078 11.2191 4.16531L12.5466 7.8825L6.16031 6.71344C6.2475 6.61781 6.33656 6.52406 6.42937 6.43125L6.4275 6.43406ZM4.5 14.4094C3.90603 12.5501 4.01954 10.537 4.81875 8.75625L8.70375 9.46875L4.5 14.4094ZM6.42656 17.5687C6.12528 17.2667 5.84905 16.9406 5.60063 16.5937L8.15625 13.5853L10.3406 19.6987C8.8582 19.3823 7.4995 18.6423 6.42937 17.5687H6.42656ZM9.83531 11.6053L11.2584 9.93187L13.4203 10.3266L14.1591 12.3947L12.7369 14.0681L10.575 13.6734L9.83531 11.6053ZM17.5687 17.5687C16.2841 18.8593 14.5897 19.6616 12.7772 19.8375L11.4516 16.125L17.8397 17.2912C17.7525 17.3822 17.6634 17.4759 17.5716 17.5687H17.5687ZM15.2963 14.5312L19.5 9.59062C20.0941 11.45 19.9803 13.4633 19.1803 15.2438L15.2963 14.5312Z" fill="black"/>
</g>
</svg>
